<svg id="Laag_1" data-name="Laag 1" xmlns="http://www.w3.org/2000/svg" width="1920" height="1266" viewBox="0 0 1920 1266"><defs><style>.cls-1,.cls-2{fill:#4353ff;}.cls-1,.cls-4{opacity:0.5;}.cls-1{isolation:isolate;}.cls-3{fill:#fff;fill-rule:evenodd;}.cls-5{fill:none;}</style></defs><rect width="1920" height="1266"/><path class="cls-1" d="M1906,233l-3.5-.9-.9-17.5-5.3-12.3-7-28-14.9-21.9-7-11.4-15.8-23.7-13.1-10.5-16.6-6.1-14-2.6-21.9-7-14-7c-2-.1-28.9-5.2-32.5-6.3l-43.8,14-21.9,14-32.4,14-26.3,12.3-9.6,13.1-9.6,8.8-9.6,9.6-31.7,18.5-9.6,18.4-5.3,8.8-28,27.2-15.8,15.8-11.4,7.9-5.3,1.8-7.9,3.5L1438,280.4l-8.8,21,7,38.6-5.3,10.5-2.6,19.3.9,3.5.9,2.6,15.8,11.4,24.5,5.3,23.7-7.9,18.4-11.4h2.6l7-4.4,13.1-6.1,17.5,21.9,12.3,18.4,14,14,11.4,17.5,1.8,18.4,6.1,5.3,7,2.6,26.3-14,6.1-6.1,28-3.5,13.1-15.8-6.1-13.1-7.9-20.2,22.8-14,2.6-.9,10.5-6.1,11.4-21.9L1700.7,333l-13.1-5.7-12.3-25,7.9-20.2,30.7-35.1,21.9-25.4,17.5-16.7,17.5-8.8,14.9-2.6v23.7l-31.5,28.9L1736.9,282l7.9,25.4,20.2,19.3,9.6,1.8,35.9,4.4,42.1,1.7,32.4-14,23.7-20.2,7.9-9.6,3.4-4.25V245.5681Z"/><path class="cls-1" d="M1908.7,990.7l11.3-9.9278V417.533l-9.7-5.233-22.8-38.6-68.4-8.8v26.3l-24.5-8.8,1.8-15.8-24.5,15.8,1.8,43.8L1750.9,442l-5.3,47.3-42.1-14-42.1,17.5-12.3,3.5-36.8-3.5-35.1-21L1564.9,442l-15.8,8.8-12.3-10.5-10.5-24.5-29.8-14-14,22.8,3.5,22.8c3,0,10.5,24.5,10.5,24.5L1465,505.2,1433.4,521l-24.5,33.3-12.3,15.8-36.8,17.5L1316,612.1l-45.6,29.8-22.8-5.3-36.8,24.5-28.9,1.6,9.6-6.8,21.9-24.5,18.4-21.9,35.1-2.6,4.4-.9,22.8-5.3,20.2-12.3,9.6-26.3,18.4-14-7-28.9-31.6-5.3-8.8-13.1-8.8-22.8-2.6-14.9-30.7-11.4-13.1-13.1-14-1.8-22.8,10.5-2.6,7-7,5.3,1.8,21.9,27.2,4.4,9.6,21.9-27.2,26.3L1173.1,556,1160,574.4l21.9,20.2-6.1,11.4-7.9,3.5L1145.1,627l-7,16.7,25.4,25.5-7,4.3,5.3,24.5,70.1,50.8-10.5,75.4-54.3,40.3-87.6-1.8-49.1-12.3-31.5,26.3-5.3,80.6-10.5,21-21,49.1-3.5,64.9,42.1,26.3,56.1,42.1,36.8-21,31.6-5.3h45.6l10.5-19.3,7-14,26.3-8.8,12.3-21-1.8-36.8,3.5-38.6,57.8-40.4,42.1-40.3,22.8-42.1,28-7,40.3,1.8,19.3-10.5c10.1,0,73.6-15.8,73.6-15.8l43.8,35.1,15.8,26.3,22.8,14,33.3,14,21,10.5,35.1,31.5,38.6,68.4-43.8,28-49.1,3.5-26.3,31.6,21,15.8,26.3-3.5,22.8,21,28,5.3-8.8-36.8,29.8-22.8,7-26.3,26.3-15.8v-31.6l-3.5-29.8h26.3l-29.8-33.3-19.3-14-10.5-8.8-43.8-17.5-28-17.5-33.3-43.8-14-8.8-8.8-29.8,21-28,28,22.8,17.5,8.8,22.8,10.5,29.8,36.8,22.8,3.5,8.8,15.8,42.1,26.3,12.3,24.6,1.8,28,17.5,35,24.5,42.1,7,3.5,50.8,15.8h10.5l11.4,12.35v-61.1877Z"/><path class="cls-2" d="M1543.1,504.6h-56.8l-.1-.4L1449.5,384h-.9l-36.7,120.6h-56.8l-.1-.4-63.9-216.6h66.4l.1.4L1387,420.5h.9l35-132.9h52.2l.1.4,35,133h.9l29.5-133.3H1607l-.2.6Zm-56.1-1h55.4l63.4-214.9h-64.3L1511.9,422h-2.5l-.1-.4-34.9-132.9h-50.7l-35,132.9h-2.5l-.1-.4-29.4-132.5h-64.3l63.4,214.9h55.3L1447.8,383h2.4l.1.4Z"/><path class="cls-2" d="M1781.1,504.6H1624.8V287.7h156.6v48.2h-97V372h89v48.2h-89v36.1H1781v48.3Zm-155.3-1H1780V457.4h-96.6V419.3h89V373h-89V334.9h97V288.7H1625.8Z"/><path class="cls-2" d="M1407.1,744.5h-64.3l-12.5-41.3h-70.5l-12.5,41.3H1183l.2-.7,71.4-216.3h80.9Zm-63.5-1h62.2l-70.9-214.9h-79.4l-70.9,214.9h62.2l12.5-41.3h71.9Zm-25.5-84.2H1272l21.8-72.3h2.4l.1.4Zm-44.7-1h43.4L1295.6,588h-1Z"/><path class="cls-2" d="M1608.5,744.5h-64.9l-.1-.3-37.8-71h-19.5v71.3h-59.6v-217h93.7c16,0,30.3,3,42.3,8.8a66.4334,66.4334,0,0,1,28.3,25.4c6.7,11,10.1,24.4,10.1,39.7,0,15.5-3.5,28.7-10.4,39.4h0a63.9126,63.9126,0,0,1-26.1,22.9Zm-64.3-1h62.5L1563,663.3l.5-.2a62.6449,62.6449,0,0,0,26.2-22.8c6.8-10.5,10.2-23.6,10.2-38.8s-3.3-28.3-9.9-39.2a66.1031,66.1031,0,0,0-27.8-25c-11.9-5.8-26-8.7-41.9-8.7h-92.7V743.5h57.6V672.2h21.1l.1.3Zm-37.8-115.9h-21.2V574.3h21.2a51.9472,51.9472,0,0,1,17.8,2.8,23.9453,23.9453,0,0,1,11.5,8.8c2.7,4,4,9.2,4,15.4s-1.4,11.3-4,15.2a23.295,23.295,0,0,1-11.5,8.5C1519.3,626.8,1513.3,627.6,1506.4,627.6Zm-20.2-1h20.2a52.9072,52.9072,0,0,0,17.5-2.6,21.445,21.445,0,0,0,11-8.1c2.6-3.7,3.9-8.6,3.9-14.6,0-6.1-1.3-11.1-3.9-14.9a23.6159,23.6159,0,0,0-11-8.5,50.1539,50.1539,0,0,0-17.5-2.8h-20.2Z"/><path class="cls-2" d="M1781.1,744.5H1624.8v-217h156.6v48.2h-97v36.1h89V660h-89v36.1H1781v48.4Zm-155.3-1H1780V697.3h-96.6V659.2h89V613h-89V574.9h97V528.7H1625.8Z"/><path class="cls-2" d="M1211.2,984.3H1140l-48.3-80.6-18.9,24.6v56h-59.5V767.4h59.6v87.3h2.2l65-87.3h69.6l-73.4,96.7Zm-70.6-1h68.8L1135.1,864l.2-.3,72.4-95.4h-67.1l-65,87.3h-3.7V768.3h-57.6V983.2h57.6V928l20-26Z"/><path class="cls-2" d="M1381.6,984.3H1225.4V767.4H1382v48.2h-97v36.1h89V900h-89v36.1h96.6Zm-155.2-1h154.2V937.1H1284V899h89V852.8h-89V814.7h97V768.5H1226.4Z"/><path class="cls-2" d="M1566.4,984.3H1410.2V767.4h156.6v48.2h-97v36.1h89V900h-89v36.1h96.6Zm-155.2-1h154.2V937.1h-96.6V899h89V852.8h-89V814.7h97V768.5H1411.2Z"/><path class="cls-2" d="M1782.7,984.3H1733l-.1-.2L1655,870.9h-.5V984.4h-59.6v-217h50.5l.1.2,76.6,112.8h.9v-113h59.6V984.3Zm-49.1-1h48.2V768.4h-57.6v113h-2.5l-.1-.2L1645,768.4h-49V983.3h57.6V869.9h2l.1.2Z"/><path id="SVGID" class="cls-3" d="M1281.2,569.4h5l-14.8,27h-7.2l.6-1,13-23.7a3.5423,3.5423,0,0,1,3.4-2.3Z"/><path id="SVGID-2" data-name="SVGID" class="cls-3" d="M999.6,987h5l-14.8,27h-7.2l.6-1,13-23.7a3.6363,3.6363,0,0,1,3.4-2.3Z"/><path id="SVGID-3" data-name="SVGID" class="cls-3" d="M1251.1,945.9h5l-14.8,27h-7.2l.6-1,13-23.7a3.6363,3.6363,0,0,1,3.4-2.3Z"/><path id="SVGID-4" data-name="SVGID" class="cls-3" d="M1619.4,610.1h5l-14.8,27h-7.2l.6-1,13-23.7a3.4112,3.4112,0,0,1,3.4-2.3Z"/><path id="SVGID-5" data-name="SVGID" class="cls-3" d="M1814.9,491.2h5l-14.8,27h-7.2l.6-1,13-23.7a3.4948,3.4948,0,0,1,3.4-2.3Z"/><path id="SVGID-6" data-name="SVGID" class="cls-3" d="M1699.6,351.5h5l-14.8,27h-7.2l.6-1,13-23.7a3.6363,3.6363,0,0,1,3.4-2.3Z"/><path id="SVGID-7" data-name="SVGID" class="cls-3" d="M1438.2,530.2h5l-14.8,27h-7.2l.6-1,13-23.7a3.5423,3.5423,0,0,1,3.4-2.3Z"/><path id="SVGID-8" data-name="SVGID" class="cls-3" d="M1382.6,664.7h5l-14.8,27h-7.2l.6-1,13-23.7a3.4948,3.4948,0,0,1,3.4-2.3Z"/><g class="cls-4"><path class="cls-2" d="M1247.3,928.3l-1-.1.8-11.1,1,.1Zm1.9-24.9-1-.1,1-13.8,1,.1Zm2.1-27.5-1-.1,1-13.8,1,.1Zm2-27.6-1-.1,1-13.8,1,.1Zm2.1-27.6-1-.1,1-13.8,1,.1Zm2.1-27.6-1-.1,1-13.8,1,.1Zm2.1-27.6-1-.1,1-13.8,1,.1Zm2-27.6-1-.1,1-13.8,1,.1Zm2.1-27.6-1-.1,1-13.8,1,.1Zm2.1-27.6-1-.1,1-13.8,1,.1Zm2.1-27.6-1-.1,1-13.8,1,.1Zm2-27.6-1-.1,1-13.8,1,.1Z"/><path class="cls-2" d="M1027.5,995.5l-.2-1,13.7-2.2.2,1Zm27.3-4.5-.2-1,13.7-2.2.2,1Zm27.3-4.4-.2-1,13.7-2.2.2,1Zm27.3-4.5-.2-1,13.7-2.2.2,1Zm27.3-4.5-.2-1,13.7-2.2.2,1Zm27.4-4.4-.2-1,13.7-2.2.2,1Zm27.3-4.5-.2-1,13.7-2.2.2,1Z"/><path class="cls-2" d="M1018.4,964.6l-.8-.6,7.7-11.5.8.6Zm15.5-22.9-.8-.6,7.7-11.5.8.6Zm15.5-22.9-.8-.6,7.7-11.5.8.6Zm15.5-23-.8-.6,7.7-11.5.8.6Zm15.5-22.9-.8-.6,7.7-11.5.8.6Zm15.5-22.9-.8-.6,7.7-11.5.8.6Zm15.5-22.9-.8-.6,7.7-11.5.8.6Zm15.5-23-.8-.6,7.7-11.5.8.6Zm15.5-22.9-.8-.6,7.7-11.5.8.6Zm15.5-22.9-.8-.6,7.7-11.5.8.6Zm15.5-23-.8-.6,7.7-11.5.8.6Zm15.5-22.9-.8-.6,7.7-11.5.8.6Zm15.4-22.9-.8-.6,7.7-11.5.8.6Zm15.5-22.9-.8-.6,7.7-11.5.8.6Zm15.5-23-.8-.6,7.7-11.5.8.6Zm15.5-22.9-.8-.6,7.7-11.5.8.6Z"/><path class="cls-2" d="M1273.6,934.1l-.7-.7,10.2-9.3.7.7Zm20.4-18.6-.7-.7,10.2-9.3.7.7Zm20.5-18.6-.7-.7,10.2-9.3.7.7Zm20.4-18.7-.7-.7,10.2-9.3.7.7Zm20.5-18.6-.7-.7,10.2-9.3.7.7Zm20.4-18.7-.7-.7,10.2-9.3.7.7Zm20.5-18.6-.7-.7,10.2-9.3.7.7Zm20.5-18.6-.7-.7,10.2-9.3.7.7Zm20.4-18.7-.7-.7,10.2-9.3.7.7Zm20.5-18.6-.7-.7,10.2-9.3.7.7Zm20.4-18.6-.7-.7,10.2-9.3.7.7Zm20.5-18.7-.7-.7,10.2-9.3.7.7Zm20.4-18.6-.7-.7,10.2-9.3.7.7Zm20.5-18.6-.7-.7,10.2-9.3.7.7Zm20.4-18.7-.7-.7,10.2-9.3.7.7Zm20.5-18.6-.7-.7,10.2-9.3.7.7Z"/><rect class="cls-2" x="1452.98" y="554.457" width="1" height="6.9002" transform="translate(381.8099 1687.2378) rotate(-67.4996)"/><path class="cls-2" d="M1572.1,607.6l-11.6-4.8.4-.9,11.6,4.8Zm-23.1-9.5-11.6-4.8.4-.9,11.6,4.8Zm-23.1-9.6-11.6-4.8.4-.9,11.6,4.8Zm-23.2-9.6-11.6-4.8.4-.9,11.6,4.8Zm-23.1-9.6-11.6-4.8.4-.9,11.6,4.8Z"/><rect class="cls-2" x="1586.5258" y="609.8008" width="1" height="6.8999" transform="translate(413.2321 1844.8902) rotate(-67.5049)"/><path class="cls-2" d="M1306.4,576.4l-.2-1,13.4-3.4.2,1Zm26.9-6.8-.2-1,13.4-3.4.2,1Zm26.8-6.8-.2-1,13.4-3.4.2,1Zm26.8-6.8-.2-1,13.4-3.4.2,1Z"/><path class="cls-2" d="M1351.8,659.1l-9.9-9.7.7-.7,9.9,9.7ZM1332,639.8l-9.9-9.7.7-.7,9.9,9.7Zm-19.8-19.3-9.9-9.7.7-.7,9.9,9.7Z"/><path class="cls-2" d="M1260.1,928.5l-.9-.4,5.8-12.5.9.4Zm11.7-25.1-.9-.4,5.8-12.5.9.4Zm11.7-25.1-.9-.4,5.8-12.5.9.4Zm11.6-25.1-.9-.4,5.8-12.5.9.4Zm11.7-25-.9-.4,5.8-12.5.9.4Zm11.7-25.1-.9-.4,5.8-12.5.9.4Zm11.7-25.1-.9-.4,5.8-12.5.9.4Zm11.7-25.1-.9-.4,5.8-12.5.9.4Zm11.7-25.1-.9-.4,5.8-12.5.9.4Z"/><path class="cls-2" d="M1408.1,671.9l-.2-1,13.5-3.1.2,1Zm27-6.3-.2-1,13.5-3.1.2,1Zm26.9-6.2-.2-1,13.5-3.1.2,1Zm27-6.2-.2-1,13.5-3.1.2,1Zm27-6.2-.2-1,13.5-3.1.2,1Zm26.9-6.2-.2-1,13.5-3.1.2,1Zm27-6.2-.2-1,12.8-3,.2,1Z"/><rect class="cls-2" x="1416.4062" y="573.0108" width="6.9002" height="1" transform="translate(347.4698 1666.6228) rotate(-67.5432)"/><path class="cls-2" d="M1397.1,629.8l-.9-.4,5.5-13.2.9.4Zm10.9-26.4-.9-.4,5.5-13.2.9.4Z"/><rect class="cls-2" x="1386.3766" y="645.5748" width="6.8998" height="1" transform="translate(260.9244 1682.709) rotate(-67.4921)"/><path class="cls-2" d="M1463.4,544.2l-.1-1,12-1.4.1,1Zm25.7-2.9-.1-1,13.7-1.6.1,1Zm27.5-3.1-.1-1,13.7-1.6.1,1Zm27.5-3.1-.1-1,13.7-1.6.1,1Zm27.5-3.1-.1-1,13.7-1.6.1,1Zm27.5-3.1-.1-1,13.7-1.6.1,1Zm27.5-3.1-.1-1,13.7-1.6.1,1Zm27.5-3.1-.1-1,13.7-1.6.1,1Zm27.5-3.1-.1-1,13.7-1.6.1,1Zm27.5-3.2-.1-1,13.7-1.6.1,1Zm27.5-3.1-.1-1,13.7-1.6.1,1Zm27.5-3.1-.1-1,13.7-1.6.1,1Z"/><rect class="cls-2" x="1639.6427" y="605.3794" width="6.8997" height="1" transform="translate(-88.4459 867.8292) rotate(-28.8437)"/><path class="cls-2" d="M1658.8,597.9l-.5-.9,12.4-6.8.5.9Zm24.7-13.6-.5-.9,12.4-6.8.5.9Zm24.8-13.7-.5-.9,12.4-6.8.5.9ZM1733,557l-.5-.9,12.4-6.8.5.9Zm24.7-13.6-.5-.9,12.4-6.8.5.9Z"/><rect class="cls-2" x="1781.7509" y="527.0938" width="6.8997" height="1" transform="translate(-33.0491 926.6731) rotate(-28.8437)"/><path class="cls-2" d="M1787.9,481.7l-5.1-6.5.8-.6,5.1,6.5Zm-13.7-17.4-8.5-10.9.8-.6,8.5,10.9Zm-17.1-21.8-8.5-10.9.8-.6,8.5,10.9Zm-17-21.8-8.5-10.9.8-.6,8.5,10.9ZM1723,399l-8.5-10.9.8-.6,8.5,10.9Z"/><path class="cls-2" d="M1624.9,592.6l-1-.3,3.1-10.6,1,.3Zm7-23.9-1-.3,3.9-13.3,1,.3Zm7.9-26.5-1-.3,3.9-13.3,1,.3Zm7.9-26.5-1-.3,3.9-13.3,1,.3Zm7.8-26.6-1-.3,3.9-13.3,1,.3Zm7.9-26.5-1-.3,3.9-13.3,1,.3Zm7.9-26.5-1-.3,3.9-13.3,1,.3Zm7.8-26.5-1-.3L1682,396l1,.3Z"/></g><circle class="cls-5" cx="1275.2" cy="582.9" r="31.1"/><circle class="cls-5" cx="993.6" cy="1000.5" r="31.1" transform="translate(-10.1559 10.1893) rotate(-0.5846)"/><circle class="cls-5" cx="1245.1" cy="959.4" r="31.1"/><circle class="cls-5" cx="1613.4" cy="623.6" r="31.1"/><circle class="cls-5" cx="1808.9" cy="504.7" r="31.1"/><circle class="cls-5" cx="1693.6" cy="365" r="31.1"/><circle class="cls-5" cx="1432.2" cy="543.7" r="31.1"/><circle class="cls-5" cx="1376.9" cy="678.2" r="31.1"/><g class="cls-4"><rect class="cls-2" x="1659.1722" y="379.8608" width="6.9" height="1" transform="translate(69.937 990.558) rotate(-33.849)"/><path class="cls-2" d="M1471.2,509.5l-.6-.8,11.8-7.9.6.8Zm23.6-15.8-.6-.8L1506,485l.6.8Zm23.6-15.9-.6-.8,11.8-7.9.6.8ZM1542,462l-.6-.8,11.8-7.9.6.8Zm23.6-15.9-.6-.8,11.8-7.9.6.8Zm23.6-15.8-.6-.8,11.8-7.9.6.8Zm23.6-15.8-.6-.8,11.8-7.9.6.8Zm23.7-15.9-.6-.8,11.8-7.9.6.8Z"/><rect class="cls-2" x="1452.6836" y="518.3847" width="6.9" height="1" transform="translate(-42.2197 899.0213) rotate(-33.849)"/></g><polygon class="cls-5" points="1920 1003.162 1920 980.772 1908.7 990.7 1920 1003.162"/><polygon class="cls-1" points="1892.8 1067.9 1861.3 1088.9 1856 1095.9 1891.1 1134.5 1920 1148.909 1920 1074.101 1892.8 1067.9"/><path class="cls-1" d="M1525.1,957.7l-6.6-10.1-.4-10.5,3.9-11,.9-7.9-6.1-5.3-.4-7.9,4.4-13.6,2.2-9.2-.9-11.4-7.9-3.5-2.2,4.4c.1.2.5.2.5.8l-2.6,10.3-4.4,6.1-8.8,3.5-6.6,21.5,12.3,11.8,3.5,4.8-4.8,9.2-12.3,7.9-4.4,11.4-1.3,3.9,2.6,30.6-9.4,13.1,7.3,25.4,19.6,4.9,11-6.1,12.7-21,2.2-19.7V967.8l-1.8-4.4Z"/><path class="cls-1" d="M1109,243.9l-2.2,2.6-2.2,7,6.6,7.9,5.3,1.3,24.1,2.2,17.1,4.8,28.5-9.2,13.6-3.1,35.5-5.3,8.3-3.5,19.3-11,5.7-6.6s-.8-1.4,1.3-3.5l-.4-13.1-4.8-4.8-15.8-6.1-4.8-3.1s-6.1-6.9-7.5-7.5l-4.4-1.3-15.3,1.8-27.2,11-8.3-1.8-12.7-7-11.4,3.9-8.8,4.4c-.1.1-3.1,1.1-3,1.9l-12-4.4-9.6-3.1-20.2,3.9-7,11-.4,11.4,14.5,12.3Z"/><polygon class="cls-1" points="1056 583.9 1105.1 584.8 1119.1 569 1138.4 555.9 1148.9 548.9 1150.7 545.4 1153.3 520.9 1167.3 510.4 1172.6 504.3 1177 486.8 1163 468.4 1149.9 457.9 1135.9 461.4 1124.5 460.5 1123.4 462.1 1113.8 477.9 1092.8 491.9 1068.3 506.8 1070.1 527.8 1058.7 540.1 1039.4 562.9 1049 580.4 1056 583.9"/></svg>