<svg id="Laag_1" data-name="Laag 1" xmlns="http://www.w3.org/2000/svg" width="93" height="34" viewBox="0 0 93 34"><defs><style>.cls-1{fill:#fff;}</style></defs><path class="cls-1" d="M81.6211,9.6116C88.4732,9.6116,93,14.3709,93,21.5641s-4.5423,11.999-11.3789,11.999c-7.1157,0-11.8595-4.8058-11.8595-11.999S74.5209,9.6116,81.6211,9.6116Zm-36.54.4806V33.067l-5.1158-1.0542V11.1ZM65.5759,9.55v5.3949l-2.9455.5426c-2.5269.4806-4.17,1.7983-4.17,4.7283V33.067l-5.1158-1.0542V19.44c0-6.2475,3.6586-8.0923,9.286-9.3945Zm-54.3985.062a7.4846,7.4846,0,0,1,5.86,3.1315,8.2176,8.2176,0,0,1,6.5886-3.0695c3.5966-.0465,8.0769,2.2169,8.0769,9.007V33.067l-5.1159-1.0542V18.6806A3.8153,3.8153,0,0,0,22.51,14.774a3.8153,3.8153,0,0,0-4.0772,3.9066V33.067l-5.1159-1.0542V18.6806A3.8153,3.8153,0,0,0,9.24,14.774a3.8371,3.8371,0,0,0-4.1236,3.9066V33.067L0,32.0128V11.1l5.1159-1.0076v2.3719A7.7559,7.7559,0,0,1,11.1774,9.6116Zm70.4437,4.8523c-3.9687,0-6.6351,2.8215-6.6351,7.1s2.6664,7.1467,6.6351,7.1467c3.7051,0,6.1545-2.868,6.1545-7.1467S85.3262,14.4639,81.6211,14.4639ZM42.6321,0a3.005,3.005,0,0,1,3.1,3.2555,3.005,3.005,0,0,1-3.1,3.2556,3.06,3.06,0,0,1-3.2245-3.2556A3.06,3.06,0,0,1,42.6321,0Z"/></svg>