<svg id="Laag_1" data-name="Laag 1" xmlns="http://www.w3.org/2000/svg" width="100" height="30" viewBox="0 0 100 30"><defs><style>.cls-1,.cls-2{fill:#fff;}.cls-1{fill-rule:evenodd;}</style></defs><path class="cls-1" d="M42.2957,9.6474a9.9474,9.9474,0,1,0,9.9483,9.9474A9.9585,9.9585,0,0,0,42.2957,9.6474Zm0,15.19a5.2322,5.2322,0,1,1,5.2328-5.232A5.2383,5.2383,0,0,1,42.2957,24.8372Z"/><path class="cls-2" d="M75.3877,6.2042a3.1021,3.1021,0,1,0-3.1023-3.1021A3.1022,3.1022,0,0,0,75.3877,6.2042Z"/><path class="cls-1" d="M21.9855,9.6578c-.2585-.0207-.5068-.031-.7653-.031a8.6425,8.6425,0,0,0-6.3081,2.72A8.6257,8.6257,0,0,0,0,18.2505V29.1388H4.6536V18.3849A4.12,4.12,0,0,1,8.19,14.3936c.1344-.01.2689-.0206.3929-.0206a3.9345,3.9345,0,0,1,3.9194,3.9085V29.1388H17.26V18.3643a4.1081,4.1081,0,0,1,3.5368-3.981c.1344-.01.2688-.0207.3929-.0207a3.9324,3.9324,0,0,1,3.93,3.8879V29.1388h4.757V18.3849a8.83,8.83,0,0,0-2.2647-5.9042,8.4849,8.4849,0,0,0-5.6257-2.8229Z"/><path class="cls-2" d="M59.5657.4653h-4.757V29.16h4.757Z"/><path class="cls-2" d="M68.666.4653H63.909V29.16h4.757Z"/><path class="cls-2" d="M77.7663,10.1231h-4.757V29.1492h4.757Z"/><path class="cls-1" d="M100,19.15a9.5186,9.5186,0,0,0-2.7612-6.7108,9.3053,9.3053,0,0,0-6.66-2.8125h-.1243a9.9532,9.9532,0,0,0,.1346,19.905h.01a10.0091,10.0091,0,0,0,8.5624-4.8807l.2275-.3826L95.46,22.335l-.1964.32a5.3491,5.3491,0,0,1-9.7312-1.3236H100ZM90.3929,13.949a5.1042,5.1042,0,0,1,4.7984,3.4537H85.605A5.0808,5.0808,0,0,1,90.3929,13.949Z"/></svg>