<svg id="Laag_1" data-name="Laag 1" xmlns="http://www.w3.org/2000/svg" width="157" height="62" viewBox="0 0 157 62"><defs><style>.cls-1{fill:#fff;}</style></defs><path class="cls-1" d="M5.2693,49.22H2.5438c-.8782,0-.8782,0-1.06,1.03s-.1817,1.06.6359,1.06H3.7551l-.9085,5.2692A2.8517,2.8517,0,0,1,.5148,59.0624C.1211,59.1836,0,59.335,0,59.5167a1.9693,1.9693,0,0,0,.2725.8479c.2726.636.3937.7268.636.7268a5.1915,5.1915,0,0,0,.7874-.1514c2.2409-.7268,3.18-2.4832,3.5431-4.5425l1.03-5.9355C6.36,49.22,6.36,49.22,5.27,49.22m9.2363,0c-1.09,0-1.09,0-1.2416.9085l-.8176,4.7848c-.212,1.393-.5754,2.2106-1.9685,2.2106-1.3324,0-1.8169-.8176-1.5747-2.0592l.7874-4.5728c.212-1.3022.1817-1.3022-.9691-1.3022-1.09,0-1.1507,0-1.3021.8783l-.8177,4.7847a3.4829,3.4829,0,0,0,3.6037,4.4213c2.6952,0,4.0579-1.2113,4.4819-4.0882l.8176-4.7545c.212-1.2113.1515-1.2113-.9993-1.2113m5.0573,7.8434c.8782-.03,1.3627-.4543,1.3627-.848,0-.5148-.6359-.6965-1.4838-.969-1.6656-.5149-3.18-1.09-3.18-2.8769,0-2.09,1.7262-3.24,3.9065-3.24a21.8033,21.8033,0,0,1,2.6044.1211c.5754.0606.7268.2726.5451,1.181s-.3937.9994-.9085.9691c-.6359-.03-1.4233-.1211-2.3924-.1211-1.09,0-1.4233.3937-1.4233.7873,0,.4846.4543.7268,1.4839,1.03,1.9078.5451,3.18,1.3324,3.18,2.998,0,1.9684-1.4233,3.0889-3.7551,3.18a18.3428,18.3428,0,0,1-3.3008-.1817c-.7268-.1211-.7874-.1211-.5754-1.181.1817-.9691.1817-1.03.8782-.9691a23.1591,23.1591,0,0,0,3.0586.1212M31.6156,49.22H25.3772c-.8782,0-.8782,0-1.06,1.06s-.1514,1.06.636,1.06h2.0289l-1.1506,6.602c-.212,1.3021-.1817,1.3021.969,1.3021,1.06,0,1.09,0,1.2417-.9085l1.181-6.9651h1.9684c.8782,0,.8782,0,1.06-1.06.1514-1.09.1514-1.09-.6359-1.09M42.578,51.31c.8783,0,.8783,0,1.06-1.06s.1817-1.06-.636-1.06H38.55c-1.5747,0-1.5444,0-1.817,1.5748l-1.1508,6.6623c-.3028,1.7261-.2725,1.7261,1.3325,1.7261h4.3608c.9085,0,.8782,0,1.06-1.03.1817-1.06.1817-1.06-.636-1.06H37.9447l.3029-1.9079h3.1191c.8479,0,.8479,0,.9994-.9993.1514-1.03.1514-1.03-.9994-1.03H38.611l.3028-1.817Zm4.7242,3.5431,1.4233-3.18c.1212-.2726.1212-.2726.3029-.2726s.1817,0,.2119.3028l.4543,3.1192-2.3924.03Zm3.9065-4.4213c-.212-1.2417-.212-1.2417-1.9987-1.2417-1.6655,0-1.6352,0-2.15,1.03l-3.6945,7.7827c-.5451,1.09-.4542,1.2114.9085,1.2114,1.06,0,1.06,0,1.5142-.9994l.5753-1.3324h3.6037l.1817,1.3324c.1514.9994.1817.9994,1.2416.9994,1.2114,0,1.3325-.0606,1.09-1.3022ZM60.0211,49.22H53.7525c-.8782,0-.8782,0-1.06,1.06s-.1514,1.06.6359,1.06h2.029l-1.1506,6.602c-.212,1.3021-.1817,1.3021.969,1.3021,1.06,0,1.09,0,1.2416-.9085l1.1811-6.9651h1.9684c.8782,0,.8782,0,1.06-1.06.212-1.09.212-1.09-.6057-1.09m7.8736,2.09H65.5326a.2862.2862,0,0,1-.3028-.3029V49.5838a.3034.3034,0,0,1,.3028-.3028H72.952a.3034.3034,0,0,1,.3028.3028v1.4233a.3035.3035,0,0,1-.3028.3029H70.59a.143.143,0,0,0-.1514.1341.1249.1249,0,0,0,0,.0173V58.79a.3034.3034,0,0,1-.3028.3028H68.349a.2861.2861,0,0,1-.3029-.3028V51.4614a.143.143,0,0,0-.1341-.1514.1249.1249,0,0,0-.0173,0ZM71.71,57.0032c0-1.3627.9993-2.12,3.1191-2.241l1.8473-.0908v-.03c0-.8782-.6359-1.2113-1.4839-1.2113a2.5009,2.5009,0,0,0-1.5141.4542.2271.2271,0,0,1-.2726,0c-.2422-.2422-.7267-.6965-.9993-.969a.2928.2928,0,0,1-.01-.414l.01-.01h0a4.4076,4.4076,0,0,1,3.0283-.9993c2.2107,0,3.5129,1.2113,3.5129,3.0586v4.27a.3035.3035,0,0,1-.3029.3028H77.1614a.2861.2861,0,0,1-.3029-.3028v-.424h-.03a2.76,2.76,0,0,1-2.2409.9085C72.952,59.2744,71.71,58.4265,71.71,57.0032Zm4.9664-.636v-.06a.143.143,0,0,0-.1341-.1514.1249.1249,0,0,0-.0173,0l-1.4233.0908c-.7571.0606-1.1508.2726-1.1508.7268,0,.5148.4846.7268,1.09.7268.9388,0,1.6353-.5148,1.6353-1.3325Zm4.9967,2.7255H80.0383a.2861.2861,0,0,1-.3029-.3028V48.7662a.3035.3035,0,0,1,.3029-.3028h1.6352a.3034.3034,0,0,1,.3029.3028v5.33c0,.1514.1514.212.2725.0909l2.3318-2.453a.3276.3276,0,0,1,.212-.0908h1.9078a.3.3,0,0,1,.212.5148L84.49,54.7925a.1135.1135,0,0,0,0,.1817l2.6952,3.634a.3026.3026,0,0,1-.2423.4845H85.035a.2755.2755,0,0,1-.2423-.1211l-1.7261-2.2409a.3256.3256,0,0,0-.424-.0606l-.03.03-.4845.4845a.275.275,0,0,0-.0909.212V58.79a.4593.4593,0,0,1-.3634.3028ZM86.73,55.3679a3.6947,3.6947,0,0,1,3.4743-3.9025q.1705-.01.3414-.004a3.6273,3.6273,0,0,1,3.7551,3.9065c0,.1514-.03.3331-.03.5148a.3221.3221,0,0,1-.3028.2726H89.1837a.1613.1613,0,0,0-.16.163.16.16,0,0,0,.0081.0489,1.7738,1.7738,0,0,0,1.6656.9691,2.4986,2.4986,0,0,0,1.4536-.424.3209.3209,0,0,1,.3937.03l.9387.9085a.2927.2927,0,0,1,.01.4138l-.01.01a4.1855,4.1855,0,0,1-2.8466.9993,3.79,3.79,0,0,1-3.9065-3.67q-.0037-.1182,0-.2364Zm2.4227-.7874h2.7557a.1651.1651,0,0,0,.1514-.2119,1.4574,1.4574,0,0,0-1.5141-1.06,1.4921,1.4921,0,0,0-1.5445,1.06.153.153,0,0,0,.1519.2119Zm12.9006-2.9374h1.817a.3647.3647,0,0,1,.3028.212l1.3627,4.4213h.03l1.393-4.4516a.3007.3007,0,0,1,.3029-.212H109.14a.291.291,0,0,1,.2726.212l1.4233,4.4516h.03l1.3627-4.4213a.3007.3007,0,0,1,.3028-.212h1.817a.2828.2828,0,0,1,.2726.3937l-2.4833,6.8439a.2907.2907,0,0,1-.2725.212h-1.9381a.291.291,0,0,1-.2726-.212l-1.3324-3.8156a.1418.1418,0,0,0-.2726,0l-1.2719,3.8156a.2907.2907,0,0,1-.2725.212H104.567a.2908.2908,0,0,1-.2726-.212l-2.4832-6.8439a.259.259,0,0,1,.2429-.3937Zm20.2594,10.0237V60.304a.3112.3112,0,0,1,.3187-.3035l.0144.0007c.1211,0,.2422.03.3634.03a1.175,1.175,0,0,0,1.3021-.8176.3312.3312,0,0,0,0-.2423l-2.7254-6.9348a.315.315,0,0,1,.1817-.3937c.03,0,.0605-.03.1211-.03h1.7867a.291.291,0,0,1,.2726.212l1.605,4.5425h.03l1.605-4.5425a.291.291,0,0,1,.2726-.212h1.7261a.2984.2984,0,0,1,.2726.424l-2.7861,7.0256C125.9172,60.94,125.19,62,123.1614,62a4.2627,4.2627,0,0,1-.6359-.03.341.341,0,0,1-.212-.3028Zm7.6919-6.2989a3.7147,3.7147,0,0,1,3.5163-3.903q.15-.0078.2993-.0035a3.6334,3.6334,0,0,1,2.5438.9388.2927.2927,0,0,1,.01.4137l-.01.01-.4542.4543a.2583.2583,0,0,1-.3641.03.2434.2434,0,0,1-.03-.03,2.41,2.41,0,0,0-1.6656-.6057,2.6653,2.6653,0,1,0,1.6959,4.7546.2831.2831,0,0,1,.3936.03l.4543.4543a.3293.3293,0,0,1,0,.4542,3.5657,3.5657,0,0,1-2.5438.9085,3.7222,3.7222,0,0,1-3.8484-3.5916q-.0054-.1575.0025-.3149Zm6.6925,0a3.8764,3.8764,0,1,1,3.8763,3.9065,3.7824,3.7824,0,0,1-3.8768-3.6856q-.0027-.11.0009-.2209Zm3.69,2.6952A2.7018,2.7018,0,1,0,137.88,55.18c-.0044.0626-.0066.1255-.0066.1883a2.5349,2.5349,0,0,0,2.3693,2.69q.0723.0045.1446.005Zm4.9107-6.42h.6663a.3034.3034,0,0,1,.3028.3028V52.4h.03a2.6721,2.6721,0,0,1,2.2106-.9388,2.8724,2.8724,0,0,1,2.4227,1.06.1417.1417,0,0,0,.2422,0,3.1406,3.1406,0,0,1,2.5741-1.06,2.8584,2.8584,0,0,1,3.0586,3.1494V58.79a.3034.3034,0,0,1-.3028.3028h-.7268a.2861.2861,0,0,1-.3029-.3028V54.8531c0-1.4233-.6662-2.2107-1.9381-2.2107-1.2113,0-1.9684.7874-1.9684,2.2107V58.79a.3034.3034,0,0,1-.3028.3028h-.7268a.2861.2861,0,0,1-.3029-.3028V54.8531c0-1.4233-.6662-2.2107-1.9381-2.2107-1.2113,0-1.9684.7874-1.9684,2.2107V58.79a.3034.3034,0,0,1-.3028.3028h-.7268a.2861.2861,0,0,1-.3029-.3028V51.946a.2861.2861,0,0,1,.2685-.3028.282.282,0,0,1,.0344,0Zm-50.7847,5.36c0-1.3627.9993-2.12,3.1191-2.241l1.8473-.0908v-.03c0-.8782-.6359-1.2113-1.4839-1.2113a2.5007,2.5007,0,0,0-1.5141.4542.2271.2271,0,0,1-.2726,0c-.2422-.2422-.7268-.6965-.9993-.969a.2929.2929,0,0,1-.01-.414l.01-.01h0a4.4076,4.4076,0,0,1,3.0283-.9993c2.2107,0,3.5128,1.2113,3.5128,3.0586v4.27a.3034.3034,0,0,1-.3028.3028H99.9645a.2861.2861,0,0,1-.3028-.2684.282.282,0,0,1,0-.0344v-.424h-.03a2.76,2.76,0,0,1-2.2409.9085c-1.6656-.03-2.8769-.8782-2.8769-2.3015Zm4.9361-.636v-.06a.1431.1431,0,0,0-.1341-.1514.1249.1249,0,0,0-.0173,0l-1.4233.0908c-.7571.0606-1.1508.2726-1.1508.7268,0,.5148.4846.7268,1.09.7268.9388,0,1.6353-.5148,1.6353-1.3325Zm14.93.636c0-1.3627.9993-2.12,3.1191-2.241l1.8473-.0908v-.03c0-.8782-.6359-1.2113-1.4839-1.2113a2.5007,2.5007,0,0,0-1.5141.4542.2271.2271,0,0,1-.2726,0c-.2422-.2422-.7267-.6965-.9993-.969a.2929.2929,0,0,1-.01-.414l.01-.01h0a4.4076,4.4076,0,0,1,3.0283-.9993c2.2107,0,3.5129,1.2113,3.5129,3.0586v4.27a.3035.3035,0,0,1-.3029.3028H119.77a.2861.2861,0,0,1-.3029-.3028v-.424h-.03a2.76,2.76,0,0,1-2.241.9085c-1.5747-.03-2.8163-.8782-2.8163-2.3015Zm4.9664-.636v-.06a.1431.1431,0,0,0-.1341-.1514.1249.1249,0,0,0-.0173,0l-1.4233.0908c-.7571.0606-1.1508.2726-1.1508.7268,0,.5148.4846.7268,1.09.7268.9388,0,1.6353-.5148,1.6353-1.3325Zm9.6,1.06a.9111.9111,0,0,1,.9085.9084.8922.8922,0,0,1-.8756.9085c-.011,0-.022,0-.0329,0a.9085.9085,0,1,1-.0192-1.8169Q128.9361,57.427,128.9457,57.4271Z"/><path class="cls-1" d="M99.4546,20.5734A62.6642,62.6642,0,0,0,94.81,13.8508l-.0611-.0611h0c-.0612-.1223-.3056-.3667-.3667-.489-.7945-1.0389-1.65-9.4728-1.7724-10.084-.1222-.7334-.3056-1.4667-1.4056-1.589-.8556-.1222-2.1391-.2444-3.5447-.3056a1.1239,1.1239,0,0,0-1.1612.6112,1.6279,1.6279,0,0,0-.1834.7334V4.5c0,.0612-.0611.1223-.1222.1834a.2954.2954,0,0,1-.4176.01l-.01-.01c-.6723-.4889-4.1558-3.178-6.05-4.3392C79.5927.2831,79.5316.222,79.4093.222a2.5224,2.5224,0,0,0-2.2.0611.2135.2135,0,0,0-.1223.0611,59.6448,59.6448,0,0,0-19.6791,20.29,1.4852,1.4852,0,0,0-.1222,1.4056c.3667.7945,3.9725.9779,4.5225,1.039.6723.0611.6112.6111.6112.6111a169.9887,169.9887,0,0,0,1.1,17.9068,1.2183,1.2183,0,0,0,1.1612,1.039c.4278,0,1.8945-.0612,5.8059-.1834.1222,0,.3056-.1222.3056-.2444v-.0612c-.3667-3.9113-.4889-7.2727-.4889-7.456a.6186.6186,0,0,0-.2445-.4278A4.475,4.475,0,0,1,67.7363,30.29c-.1222-7.7006.3667-13.6287.3667-13.6287s.0611-.7945.7945-.7334.6723.8556.6723.8556c-.2445,3.3-.3667,9.29-.3667,9.29s0,1.1612,1.1,1.1612,1.1-1.1612,1.1-1.1612c-.0611-4.7059.3667-9.4117.3667-9.4117a.7781.7781,0,0,1,.7613-.7945c.0111,0,.0221,0,.0332,0a.6041.6041,0,0,1,.6112.55.39.39,0,0,1,0,.3667c-.3056,4.0336-.3667,9.29-.3667,9.29s0,1.1612,1.1,1.1612,1.1-1.2223,1.1-1.2223c0-3.9114.3667-9.2895.3667-9.2895.0611-.4278.2445-.7945.7334-.7945.6111,0,.6723.6112.6723.7945-.3667,4.2169-.3667,10.6952-.3056,13.4453a4.6306,4.6306,0,0,1-2.2,4.0948.4758.4758,0,0,0-.1833.4278c.1222,2.5668.3056,5.4392.4889,7.4561a.2628.2628,0,0,0,.2445.2444h4.4614c2.0779,0,2.9335,0,4.4614.0611.1834,0,.2445-.1222.2445-.3055.4278-3.667.55-6.356.55-6.6s-.3056-.3056-.3056-.3056c-.4889-.0611-1.589-.1833-2.5668-.3667a1.2483,1.2483,0,0,1-.9779-1.2223,27.8038,27.8038,0,0,1,5.256-18.7012,1.3818,1.3818,0,0,1,1.4667-.4889c.7334.3055.9168,2.3835.9168,2.5057a147.5132,147.5132,0,0,1-.6112,25.18.3351.3351,0,0,0,.2445.3667c.1833.0611,3.85.1833,4.2169.1222a1.2972,1.2972,0,0,0,1.1612-1.1,125.0794,125.0794,0,0,0,1.1-17.8456.7127.7127,0,0,1,.6111-.6112l3.4836-.3667a1.3215,1.3215,0,0,0,1.039-.6111,2.1209,2.1209,0,0,0-.1223-1.528"/></svg>