<svg id="Laag_1" data-name="Laag 1" xmlns="http://www.w3.org/2000/svg" width="155" height="13" viewBox="0 0 155 13"><defs><style>.cls-1{fill:#fff;}</style></defs><path class="cls-1" d="M16.8531.03H5.9046L7.4752,2.7636h8.0641a.63.63,0,0,1,.6493.71V9.1514a.6371.6371,0,0,1-.6493.71l-9.2572.0151V7.5507h7.6262V4.9532L6.116,4.9684,3.1713,0H0L3.5639,6.1915v6.3879H17.0192c1.2232,0,1.933-1.0571,1.933-3.1864V2.7786c0-1.8272-.71-2.7484-2.0991-2.7484"/><path class="cls-1" d="M56.0561,4.8324V3.4733a.7279.7279,0,0,0-.6644-.74H48.0373a.63.63,0,0,0-.6493.71V4.8324Zm.0151,2.7183H47.3729v5.0438H44.6546V2.5672A2.2933,2.2933,0,0,1,47.2671,0h9.2118c1.5555,0,2.31.9212,2.31,2.7484V12.61H56.0712Z"/><polygon class="cls-1" points="78.738 7.551 78.738 12.579 76.02 12.579 76.02 0.015 78.738 0.015 78.738 4.832 83.51 4.832 86.38 0 89.536 0 85.987 6.192 89.536 12.595 86.395 12.595 83.48 7.551 78.738 7.551"/><polygon class="cls-1" points="141.65 12.61 141.65 0 155 0 155 2.748 144.354 2.748 144.354 4.848 155 4.848 155 7.566 144.354 7.566 144.354 9.861 155 9.861 155 12.61 141.65 12.61"/><path class="cls-1" d="M135.474,9.8461a.6371.6371,0,0,0,.6493-.71v-.891a.637.637,0,0,0-.6493-.71h-8.6682c-1.2836,0-1.8424-.9363-1.8424-2.8391V2.7636c0-1.8273.6494-2.7485,1.933-2.7485h12.1717l-1.6158,2.7485H128.331a.63.63,0,0,0-.6493.71v.68a.637.637,0,0,0,.6493.71h8.4417c1.42,0,2.1293.8306,2.1293,2.824V9.3779q0,3.2166-2.1293,3.2166H124.4349l1.6612-2.7484Z"/><path class="cls-1" d="M74.0116,2.7636H64.3769a.63.63,0,0,0-.6493.71V9.1514a.6371.6371,0,0,0,.6493.71h9.65v2.7333H63.0631c-1.3893,0-2.099-1.0571-2.099-3.1864V2.7786c0-1.8272.71-2.7484,2.099-2.7484H74.0116Z"/><path class="cls-1" d="M38.9463,4.0924a.7156.7156,0,0,1-.6644.74H30.6255V2.7636h7.6564a.7156.7156,0,0,1,.6644.74Zm0,5.0288a.7156.7156,0,0,1-.6644.74H30.6255v-2.31h7.6564a.7156.7156,0,0,1,.6644.74Zm2.7786-6.6144C41.7249.68,40.985,0,39.6259.0151H27.877V12.5794H39.6259c1.3591,0,2.099-.6041,2.099-2.4313V7.9735a2.9783,2.9783,0,0,0-.3926-1.6461,2.9777,2.9777,0,0,0,.3926-1.646Z"/><path class="cls-1" d="M102.236,4.0924a.7157.7157,0,0,1-.6645.74H93.9151V2.7636h7.6564a.7157.7157,0,0,1,.6645.74Zm0,5.0288a.7157.7157,0,0,1-.6645.74H93.9151v-2.31h7.6564a.7157.7157,0,0,1,.6645.74ZM105.03,2.5068C105.03.68,104.29,0,102.9306.0151H91.1818V12.5794h11.7488c1.3591,0,2.0991-.6041,2.0991-2.4313V7.9735a2.9791,2.9791,0,0,0-.3926-1.6461,2.9785,2.9785,0,0,0,.3926-1.646Z"/><path class="cls-1" d="M119.3609,4.8324V3.4733a.728.728,0,0,0-.6645-.74h-7.3543a.63.63,0,0,0-.6494.71V4.8324Zm.0151,2.7183h-8.6833v5.0438h-2.7182V2.5672A2.2994,2.2994,0,0,1,110.587,0h9.2118c1.5554,0,2.3105.9212,2.3105,2.7484V12.61h-2.7182Z"/></svg>