<svg id="Laag_1" data-name="Laag 1" xmlns="http://www.w3.org/2000/svg" width="125" height="21" viewBox="0 0 125 21"><defs><style>.cls-1{fill:#fff;}</style></defs><path class="cls-1" d="M0,10.2957c.0847-.54.1306-1.09.26-1.6188A9.34,9.34,0,0,1,6.776,1.607a9.2651,9.2651,0,0,1,7.4664.7328.3643.3643,0,0,1,.2343.3705c-.0125,2.2851.0086,4.5706-.0313,6.8551a5.7075,5.7075,0,0,1-4.3409,5.4961,4.5807,4.5807,0,0,1-5.413-2.7632A3.333,3.333,0,0,1,7.2675,7.93a2.4532,2.4532,0,0,1,2.61,1.4158,1.19,1.19,0,0,0,1.1066.7188,1.1412,1.1412,0,0,0,1.0675-.6208,1.1992,1.1992,0,0,0,.036-1.1219A4.9072,4.9072,0,0,0,7.4094,5.4787,5.66,5.66,0,0,0,2.288,9.632a5.7515,5.7515,0,0,0,1.4292,5.6761,7.08,7.08,0,0,0,8.3657,1.6254,7.9809,7.9809,0,0,0,4.694-6.3022,12.4126,12.4126,0,0,0,.1318-1.744c.0182-1.3428.0044-2.686.0036-4.0291V4.6144L17,4.5755c.249.3437.52.6739.7433,1.0334a9.6115,9.6115,0,0,1-15.68,11.0824A9.7444,9.7444,0,0,1,.07,11.84c-.0273-.211-.0469-.4231-.07-.6346Z"/><path class="cls-1" d="M34.653,6.45V.3668L36.3947.1923V16.4735l-1.6528.1224V14.5476c-.1463.1745-.2309.2735-.3136.3743a5.1606,5.1606,0,0,1-4.2861,1.894,5.7042,5.7042,0,0,1-5.0535-2.5836,6.6061,6.6061,0,0,1-.9379-4.3486A5.9426,5.9426,0,0,1,25.4086,6.61a5.6659,5.6659,0,0,1,4.082-2.1848,6.1692,6.1692,0,0,1,3.4646.6047A5.9313,5.9313,0,0,1,34.653,6.45Zm-8.8142,4.1621c.0336.3321.0466.6679.104.9959A4.4019,4.4019,0,0,0,32.5359,14.65a4.5472,4.5472,0,0,0,2.0913-5.062,4.2812,4.2812,0,0,0-4.2787-3.5953,4.3474,4.3474,0,0,0-2.8162.8624A4.5413,4.5413,0,0,0,25.8388,10.6124Z"/><path class="cls-1" d="M103.369,12.5854c.3438.3037.693.5928,1.0128.9114a.4011.4011,0,0,1,.01.36,4.8129,4.8129,0,0,1-2.8374,2.5549,7.6423,7.6423,0,0,1-5.4587-.13,5.3967,5.3967,0,0,1-3.3726-4.4654,6.3655,6.3655,0,0,1,.7059-4.3619,5.9848,5.9848,0,0,1,4.7935-3.0263,6.18,6.18,0,0,1,4.736,1.34,4.7168,4.7168,0,0,1,1.8111,2.9308,3.552,3.552,0,0,1,.0266.71c-.0083.1683-.0932.2695-.297.3124q-4.8794,1.026-9.7536,2.076a1.0166,1.0166,0,0,0-.12.041,4.1435,4.1435,0,0,0,2.941,3.1831A4.7467,4.7467,0,0,0,103.369,12.5854ZM102.6573,8.93a2.9969,2.9969,0,0,0-.8681-1.8683A3.9919,3.9919,0,0,0,98.3542,5.93,4.2155,4.2155,0,0,0,94.8189,8.461a4.2888,4.2888,0,0,0-.3872,1.9249Z"/><path class="cls-1" d="M82.2815,12.5731c.3571.3152.7061.6045,1.0269.9224a.3931.3931,0,0,1,.0121.3526A4.7937,4.7937,0,0,1,80.1846,16.51a7.51,7.51,0,0,1-5.7324-.5063,5.4,5.4,0,0,1-2.7957-4.14,6.5429,6.5429,0,0,1,.4327-3.8749A5.9116,5.9116,0,0,1,76.5554,4.51a6.39,6.39,0,0,1,4.1452.4971,5.3175,5.3175,0,0,1,2.9412,3.39,3.821,3.821,0,0,1,.0908.4424c.1.6713.0052.8061-.6646.9493q-4.7,1.0049-9.4,2.0094a.7737.7737,0,0,0-.116.0443,4.1882,4.1882,0,0,0,3.1973,3.2472A4.6643,4.6643,0,0,0,82.2815,12.5731ZM81.5971,8.929a3.3838,3.3838,0,0,0-2.4-2.817,4.418,4.418,0,0,0-2.4559-.1027A4.3294,4.3294,0,0,0,73.37,10.3828Z"/><path class="cls-1" d="M40.2909,11.8663a4.3078,4.3078,0,0,0,3.5439,3.2775,4.5256,4.5256,0,0,0,5.2454-2.583c.3781.3414.7415.6562,1.0825.9935.0463.0458.0082.219-.0377.3094a4.8854,4.8854,0,0,1-3.3116,2.6928,7.4476,7.4476,0,0,1-5.63-.5943,5.43,5.43,0,0,1-2.697-3.9817,6.511,6.511,0,0,1,.3857-3.9266,5.9148,5.9148,0,0,1,5.0954-3.6246A6.1155,6.1155,0,0,1,48.571,5.6767,4.8976,4.8976,0,0,1,50.49,8.5521c.0063.0316.0185.0625.022.0944.1245,1.1389.0912.9938-.8253,1.19q-4.6212.99-9.2449,1.9681A1.1351,1.1351,0,0,0,40.2909,11.8663ZM48.375,8.9335a2.9525,2.9525,0,0,0-.702-1.6979,4.0092,4.0092,0,0,0-3.8722-1.2793,4.3415,4.3415,0,0,0-3.642,4.4292Z"/><path class="cls-1" d="M116.364,12.6644c.3631.2545.7475.5088,1.1086.7928.0558.0439.04.2389-.0024.3381a4.7155,4.7155,0,0,1-2.6922,2.5752,6.7042,6.7042,0,0,1-7.6531-1.95,5.919,5.919,0,0,1-1.107-3.0233,6.3981,6.3981,0,0,1,.8184-4.0173,5.9149,5.9149,0,0,1,4.33-2.8829,7.1066,7.1066,0,0,1,3.9479.39A4.1958,4.1958,0,0,1,117.38,7.0512c.0934.2014.0825.3222-.1128.4532-.33.2214-.64.4729-.9557.71a7.7547,7.7547,0,0,0-.543-.8852,3.4708,3.4708,0,0,0-2.149-1.2212,5.0823,5.0823,0,0,0-3.8866.6331,4.1914,4.1914,0,0,0-1.9459,3.3,4.7792,4.7792,0,0,0,1.1212,3.7477,4.2344,4.2344,0,0,0,2.8244,1.4005,4.7693,4.7693,0,0,0,3.2184-.6862,3.0233,3.0233,0,0,0,1.2961-1.6855.6538.6538,0,0,1,.0555-.1142C116.307,12.6953,116.32,12.6918,116.364,12.6644Z"/><path class="cls-1" d="M59.4631,4.7163c.5681-.0748,1.1024-.1376,1.6339-.2185.2332-.0355.2666.1319.331.275q1.6365,3.6341,3.2714,7.2689c.2381.5289.4791,1.0564.7386,1.6282.4092-.9626.8-1.8821,1.1912-2.8018q1.2987-3.0559,2.5953-6.1129c.0673-.159.1234-.2882.3419-.2538.5112.08,1.0251.1432,1.581.2191-.1929.4435-.3722.8649-.5587,1.283Q68.2868,11.1644,65.99,16.3278c-.1046.2366-.2359.2684-.4595.2931a.6963.6963,0,0,1-.8132-.5078C63.0291,12.414,61.311,8.7284,59.6018,5.0387,59.5577,4.9434,59.5186,4.8457,59.4631,4.7163Z"/><path class="cls-1" d="M122.1654,4.7162H125V6.2577h-2.82c-.0058.1242-.0131.208-.0131.2917.0008,2.2629-.0035,4.5258.0062,6.7886a1.5832,1.5832,0,0,0,1.731,1.7013c.3232.0018.6465,0,1.0242,0-.0848.5142-.1613.9966-.2493,1.477a.1816.1816,0,0,1-.1414.0948,5.6732,5.6732,0,0,1-2.703-.3484,2.4932,2.4932,0,0,1-1.418-2.3611c-.03-2.4249-.0094-4.85-.0093-7.2758l0-.3614h-2.3391l.27-1.5542h2.0692c0-.4028,0-.7777,0-1.1525q0-.666,0-1.3318c0-.5113-.0024-.518.4883-.6875.4023-.1389.8111-.2591,1.2706-.4046Z"/><path class="cls-1" d="M87.2507,16.4539l-1.677.0939V4.7127L87.24,4.5706V6.9737A4.9346,4.9346,0,0,1,92.4646,4.558l-.4221,1.7394c-.4317.0333-.86.0529-1.2858.1014a3.8009,3.8009,0,0,0-3.4459,3.2727c-.0248.2464-.0575.4935-.0581.74-.0047,1.8832-.0022,3.7664-.002,5.65Z"/><path class="cls-1" d="M52.3359,16.547v-.4213q0-7.6954-.0045-15.3908c0-.2737.0367-.397.3616-.4C53.16.3293,53.627.24,54.1348.1824v.4q0,7.7441.0073,15.4881c.0008.34-.105.4209-.424.4144C53.2694,16.4756,52.82,16.5223,52.3359,16.547Z"/><path class="cls-1" d="M56.6989,16.5452V4.7121l1.7546-.1433V4.907q.001,5.6019.0075,11.2037c.0007.2768-.0623.38-.3587.3742C57.6424,16.4762,57.1815,16.5216,56.6989,16.5452Z"/><path class="cls-1" d="M58.6752,1.4945c-.0315.2839-.0528.553-.0932.8192A.6614.6614,0,0,1,58,2.9222a2.8832,2.8832,0,0,1-.8045.0042.6893.6893,0,0,1-.6172-.6577A11.6767,11.6767,0,0,1,56.58.6263a.6445.6445,0,0,1,.65-.6058,2.86,2.86,0,0,1,.7016.0023.6708.6708,0,0,1,.6461.6155C58.6285.9242,58.6448,1.2161,58.6752,1.4945Z"/></svg>